<?xml version="1.0" standalone="no"?>
<!DOCTYPE svg PUBLIC "-//W3C//DTD SVG 20010904//EN"
 "http://www.w3.org/TR/2001/REC-SVG-20010904/DTD/svg10.dtd">
<svg version="1.0" xmlns="http://www.w3.org/2000/svg"
 width="395.000000pt" height="351.000000pt" viewBox="0 0 395.000000 351.000000"
 preserveAspectRatio="xMidYMid meet">

<g transform="translate(0.000000,351.000000) scale(0.100000,-0.100000)"
fill="#000000" stroke="none">
<path d="M0 1755 l0 -1755 1975 0 1975 0 0 1755 0 1755 -1975 0 -1975 0 0
-1755z m1933 1480 l-73 -34 0 -402 0 -403 27 -28 27 -28 -27 -28 -27 -28 0
-358 0 -358 23 5 c77 19 233 46 300 52 l77 7 0 69 0 69 -37 0 c-53 0 -111 18
-160 48 -24 15 -43 29 -43 32 0 3 38 4 84 2 47 -2 133 4 191 12 155 23 249 21
310 -8 l50 -23 -50 -7 c-97 -14 -215 -39 -215 -46 0 -8 69 -30 94 -30 14 0 16
-15 16 -112 l0 -113 -82 3 c-108 5 -197 -9 -420 -64 -296 -74 -444 -72 -610 5
l-63 29 110 1 c61 1 127 4 148 7 l37 7 0 381 0 382 -30 29 -30 29 30 31 30 31
0 352 0 351 -37 7 c-21 4 -54 15 -73 24 l-35 18 50 7 c28 4 88 21 135 38 152
55 234 76 290 76 l55 0 -72 -34z m-423 -2525 l0 -370 55 0 c54 0 55 0 55 -30
l0 -30 -85 0 -85 0 0 400 0 400 30 0 30 0 0 -370z m240 5 l0 -365 40 0 40 0 0
365 0 365 30 0 30 0 0 -379 0 -380 -29 -20 c-44 -32 -110 -29 -144 7 l-27 28
0 372 0 372 30 0 30 0 0 -365z m409 329 c14 -23 21 -52 21 -85 0 -48 -1 -49
-30 -49 -29 0 -30 1 -30 50 l0 50 -40 0 -40 0 0 -335 0 -335 40 0 40 0 0 75 0
75 30 0 30 0 0 -77 c0 -66 -3 -80 -26 -110 -22 -29 -31 -33 -69 -33 -38 0 -47
5 -74 37 l-31 38 0 328 0 329 28 39 c25 36 30 39 79 39 48 0 52 -2 72 -36z
m161 -116 c0 -83 3 -148 7 -145 4 4 34 71 68 150 60 140 61 142 94 145 25 3
32 0 28 -10 -2 -7 -35 -82 -73 -166 l-67 -153 71 -233 c40 -129 72 -237 72
-241 0 -3 -14 -5 -32 -3 l-32 3 -57 190 c-32 105 -58 192 -59 195 -1 3 -5 -4
-10 -15 -5 -11 -9 -100 -9 -198 l-1 -178 -27 3 -28 3 -3 403 -2 402 30 0 30 0
0 -152z"/>
</g>
</svg>
